<?xml version="1.0" encoding="utf-8"?>
<!-- Generator: Adobe Illustrator 18.0.0, SVG Export Plug-In . SVG Version: 6.00 Build 0)  -->
<!DOCTYPE svg PUBLIC "-//W3C//DTD SVG 1.1//EN" "http://www.w3.org/Graphics/SVG/1.1/DTD/svg11.dtd">
<svg version="1.1" id="Layer_1" xmlns="http://www.w3.org/2000/svg" xmlns:xlink="http://www.w3.org/1999/xlink" x="0px" y="0px"
	 viewBox="0 0 612 792" enable-background="new 0 0 612 792" xml:space="preserve">
<path fill="#6FCFF0" d="M270.9,384.2c0-16.5,12.4-30,28.4-31.9V249.9h-122c-24,0-43.5,3.3-58.3,9.8c-14.8,6.5-27,15.9-36.7,28.1
	c-9.7,12.2-16.7,26.4-21,42.6c-4.4,16.2-6.5,33.4-6.5,51.5c0,28.4,3.2,50.4,9.7,66.1c6.5,15.7,15.4,28.8,26.9,39.3
	c11.5,10.6,23.8,17.6,37,21.1c18,4.8,34.3,7.2,48.9,7.2h122v-99.5C283.3,414.2,270.9,400.7,270.9,384.2z M217.2,455.2H197
	c-17.2,0-29.4-1.9-36.6-5.7c-7.2-3.8-12.9-10.5-17-19.9c-4.1-9.5-6.2-24.9-6.2-46.1c0-28.2,4.6-47.4,13.8-57.8
	c9.2-10.4,24.4-15.6,45.7-15.6h20.5V455.2z"/>
<path fill="#6FCFF0" d="M307.2,416.1v99.5h122c14.6,0,30.9-2.4,48.9-7.2c13.2-3.5,25.5-10.5,37-21.1c11.5-10.6,20.5-23.7,26.9-39.3
	c6.5-15.7,9.7-37.7,9.7-66.1c0-18.1-2.2-35.3-6.5-51.5c-4.3-16.2-11.4-30.4-21-42.6c-9.7-12.2-21.9-21.6-36.7-28.1
	c-14.8-6.5-34.2-9.8-58.3-9.8h-122v102.5c16,1.9,28.4,15.4,28.4,31.9S323.2,414.2,307.2,416.1z M389.3,310h20.5
	c21.3,0,36.5,5.2,45.7,15.6c9.2,10.4,13.8,29.7,13.8,57.8c0,21.3-2.1,36.6-6.2,46.1c-4.1,9.5-9.8,16.1-17,19.9
	c-7.2,3.8-19.5,5.7-36.6,5.7h-20.1V310z"/>
</svg>
